<svg id="Capa_1" enable-background="new 0 0 512 512" height="512" viewBox="0 0 512 512" width="512" xmlns="http://www.w3.org/2000/svg"><g><g><path clip-rule="evenodd" d="m269.94 495.086c133.339 0 242.06-108.753 242.06-242.066 0-133.342-108.721-242.066-242.06-242.066-133.309 0-242.06 108.724-242.06 242.066.001 133.313 108.751 242.066 242.06 242.066z" fill="#eff6ff" fill-rule="evenodd"/></g><g><path clip-rule="evenodd" d="m269.94 435.658c100.603 0 182.633-82.061 182.633-182.637 0-100.605-82.03-182.637-182.633-182.637-100.573 0-182.633 82.032-182.633 182.637.001 100.575 82.06 182.637 182.633 182.637z" fill="#fe8d94" fill-rule="evenodd"/></g><g><path clip-rule="evenodd" d="m269.94 376.229c67.867 0 123.205-55.369 123.205-123.209 0-67.868-55.339-123.209-123.205-123.209-67.837 0-123.205 55.34-123.205 123.209 0 67.84 55.368 123.209 123.205 123.209z" fill="#eff6ff" fill-rule="evenodd"/></g><g><path clip-rule="evenodd" d="m269.94 316.771c35.131 0 63.778-28.648 63.778-63.751 0-35.132-28.648-63.78-63.778-63.78s-63.749 28.648-63.749 63.78c0 35.103 28.619 63.751 63.749 63.751z" fill="#fe8d94" fill-rule="evenodd"/></g><path clip-rule="evenodd" d="m375.77 104.142c21.464 42.491 34.109 93.713 34.401 148.878v1.898c0 53.354-11.564 103.088-31.51 144.848 44.855-33.263 73.911-86.617 73.911-146.747.001-61.413-30.311-115.761-76.802-148.877z" fill="#ff6d75" fill-rule="evenodd"/><path clip-rule="evenodd" d="m296.223 12.356c32.21 20.559 59.661 52.42 79.548 91.786 46.49 33.116 76.803 87.464 76.803 148.878 0 60.13-29.056 113.484-73.911 146.747-18.69 39.191-44.738 71.373-75.518 93.071 117.977-16.179 208.855-117.398 208.855-239.818 0-124.815-94.441-227.552-215.777-240.664z" fill="#d9eeff" fill-rule="evenodd"/><g><path clip-rule="evenodd" d="m98.025 374.652c-53.908-20.296-102.53.73-97.682 37.001 3.008 22.691 30.166 21.756 47.25 7.184l.438-.409 29.756-7.885z" fill="#9fd4fe" fill-rule="evenodd"/></g><g><path clip-rule="evenodd" d="m48.03 418.428-.438.38c.146-.117.292-.234.438-.38zm173.084-122.654c-29.757-33.993-112.254 40.242-123.089 78.878l-28.239 24.735-21.756 19.041-.438.409c-10.162 8.878-8.089 21.523-.905 29.729 7.184 8.177 19.42 11.915 29.582 3.008l21.756-19.041 28.239-24.735.438-.38c39.745-5.665 127.06-74.381 94.412-111.644z" fill="#fde588" fill-rule="evenodd"/></g><g><path clip-rule="evenodd" d="m126.264 407.798-35.771 12.704-14.224 31.071c-17.054 14.952-21.843 42.14.438 48.185 35.335 9.58 62.581-35.861 49.557-91.96z" fill="#9fd4fe" fill-rule="evenodd"/></g><g><path d="m221.117 303.501c-2.15 0-4.289-.892-5.816-2.637-2.811-3.211-2.488-8.092.723-10.904l48.826-42.754c3.211-2.811 8.093-2.486 10.904.723 2.811 3.211 2.488 8.092-.723 10.904l-48.826 42.754c-1.466 1.284-3.282 1.914-5.088 1.914z" fill="#7e707d"/></g><g><path clip-rule="evenodd" d="m137.916 379.208c-10.863 5.753-21.201 9.666-29.436 10.834-16.821 14.718-33.612 29.437-50.433 44.155-5.315 4.673-11.185 5.87-16.616 4.789.964 3.475 2.833 6.775 5.256 9.579 7.184 8.177 19.42 11.915 29.582 3.008 16.821-14.718 33.612-29.437 50.433-44.155 8.381-1.197 18.894-5.198 29.962-11.126 17.083-9.17 35.452-22.925 49.323-37.964 19.653-21.348 30.225-45.323 15.127-62.553-3.504-4.03-7.768-6.542-12.586-7.768 5.695 16.558-5.373 36.855-22.72 55.019-13.754 14.396-31.451 27.421-47.892 36.182z" fill="#fdd76f" fill-rule="evenodd"/></g><g><path clip-rule="evenodd" d="m114.408 438.52c-5.753 31.978-26.545 52.216-51.25 45.528-.438-.117-.847-.234-1.256-.38.964 7.418 5.548 13.58 14.806 16.091 25.903 7.038 47.454-15.507 51.98-50.142 1.665-12.616 1.051-26.838-2.424-41.819l-10.308 9.024c.233 7.651-.322 14.922-1.548 21.698z" fill="#85beef" fill-rule="evenodd"/></g><g><path clip-rule="evenodd" d="m75.656 368.461-12.061 10.542-.234.234-21.493 18.807-.438.409c-12.966 11.039-31.685 14.251-41.292 5.286-.234 2.541-.175 5.198.204 7.914 3.008 22.691 30.166 21.756 47.25 7.184l.438-.409 21.756-19.041 4.439-3.884 23.8-20.851c-7.622-2.862-15.098-4.906-22.369-6.191z" fill="#85beef" fill-rule="evenodd"/></g></g></svg>