<?xml version="1.0" encoding="utf-8"?>
<!-- Generator: Adobe Illustrator 23.0.1, SVG Export Plug-In . SVG Version: 6.00 Build 0)  -->
<svg version="1.1" id="Capa_1" xmlns="http://www.w3.org/2000/svg" xmlns:xlink="http://www.w3.org/1999/xlink" x="0px" y="0px"
	 viewBox="0 0 97.8 97.8" style="enable-background:new 0 0 97.8 97.8;" xml:space="preserve">
<style type="text/css">
	.st0{fill:#858585;}
</style>
<g>
	<g>
		<ellipse class="st0" cx="48.9" cy="48.7" rx="14.5" ry="14"/>
		<path class="st0" d="M71.3,49.5c0,12-10,21.7-22.4,21.7s-22.4-9.7-22.4-21.7c0-2.1,0.3-4.2,0.9-6.2h-6.6v30.4
			c0,1.6,1.3,2.9,2.9,2.9h50.2c1.6,0,2.9-1.3,2.9-2.9V43.3h-6.3C71,45.3,71.3,47.4,71.3,49.5z"/>
		<path class="st0" d="M65.3,35.1h8.1c1.8,0,3.2-1.5,3.2-3.2v-7.8c0-1.8-1.5-3.2-3.2-3.2h-8.1c-1.8,0-3.2,1.5-3.2,3.2v7.8
			C62.1,33.7,63.5,35.1,65.3,35.1z"/>
		<path class="st0" d="M48.9,0C21.9,0,0,21.9,0,48.9s21.9,48.9,48.9,48.9s48.9-21.9,48.9-48.9S75.9,0,48.9,0z M75.6,84.9H22.1
			c-5.1,0-9.2-3.8-9.2-9.2V22.1c0-5.5,4.2-9.2,9.2-9.2h53.5c5.1,0,9.2,3.8,9.2,9.2v53.5C84.9,81.1,80.7,84.9,75.6,84.9z"/>
	</g>
</g>
</svg>
