<?xml version="1.0" encoding="utf-8"?>
<!-- Generator: Adobe Illustrator 23.0.1, SVG Export Plug-In . SVG Version: 6.00 Build 0)  -->
<svg version="1.1" id="Layer_1" xmlns="http://www.w3.org/2000/svg" xmlns:xlink="http://www.w3.org/1999/xlink" x="0px" y="0px"
	 viewBox="0 0 512 512" style="enable-background:new 0 0 512 512;" xml:space="preserve">
<style type="text/css">
	.st0{fill:#FFD5A1;}
	.st1{fill:#FFFFFF;}
	.st2{fill:#EAEFF0;}
	.st3{fill:#B8BEC3;}
	.st4{opacity:0.46;fill:#DC691D;}
</style>
<g>
	<path class="st0" d="M388.4,0H123.6c-9.8,0-17.7,7.9-17.7,17.7v423.7h300.1V17.7C406.1,7.9,398.2,0,388.4,0L388.4,0z"/>
	<path class="st1" d="M282.5,44.1h-53c-4.9,0-8.8-4-8.8-8.8s4-8.8,8.8-8.8h53c4.9,0,8.8,4,8.8,8.8S287.4,44.1,282.5,44.1z"/>
	<path class="st2" d="M384.4,512H127.6c-12,0-21.7-9.7-21.7-21.7v-84.3h300.1v84.3C406.1,502.3,396.4,512,384.4,512z"/>
	<circle class="st3" cx="256" cy="459" r="26.5"/>
	<path class="st4" d="M273.7,114.8l-114.8,44.1l-17.7,123.6l97.1,79.4l114.8-44.1l17.7-123.6L273.7,114.8z"/>
	<g>
		<path class="st1" d="M185.4,273.7c-3.2,0-6.4-1.8-7.9-4.9c-2.2-4.4-0.4-9.7,3.9-11.8l66.4-33.2l8.2-65.9c0.6-4.8,5-8.2,9.9-7.7
			c4.8,0.6,8.3,5,7.7,9.9l-8.8,70.6c-0.4,2.9-2.2,5.5-4.8,6.8l-70.6,35.3C188.1,273.4,186.7,273.7,185.4,273.7z"/>
		<path class="st1" d="M317.8,291.3c-2,0-4.1-0.7-5.7-2.1l-61.8-53c-3.7-3.2-4.1-8.7-1-12.4c3.2-3.7,8.7-4.1,12.4-1l61.8,53
			c3.7,3.2,4.1,8.7,1,12.4C322.8,290.3,320.3,291.3,317.8,291.3L317.8,291.3z"/>
	</g>
</g>
</svg>
