<svg width="91" height="91" viewBox="0 0 91 91" fill="none" xmlns="http://www.w3.org/2000/svg">
<path d="M71.3264 55.9162C77.6598 55.9358 82.7947 61.1618 82.8333 67.6271V79.0865C82.7949 85.5578 77.6655 90.7941 71.3264 90.8333H60.1009C53.7676 90.7939 48.6483 85.552 48.6292 79.0865V67.6271C48.6292 61.1594 53.7652 55.9162 60.1009 55.9162H71.3264ZM23.1168 55.9163C24.2954 55.7875 25.4427 56.3568 26.0715 57.3826C26.7003 58.4084 26.7003 59.7107 26.0715 60.7365C25.4427 61.7623 24.2954 62.3316 23.1168 62.2028H18.507C15.5666 62.2027 13.1775 64.6256 13.1582 67.6272V78.9429C13.2329 81.9204 15.5898 84.3106 18.507 84.3673H29.8028C31.2181 84.3768 32.5787 83.8096 33.5828 82.7913C34.587 81.773 35.1516 80.3878 35.1516 78.9429V61.9513L35.1036 61.5287C35.0505 60.4045 35.5897 59.3218 36.5385 58.7076C37.606 58.0166 38.9778 58.0573 40.0041 58.8104C41.0305 59.5635 41.5055 60.8778 41.2042 62.131V79.0507C41.2042 85.5382 36.0523 90.7975 29.6972 90.7975H18.507C12.2068 90.664 7.13071 85.4822 7 79.0507V67.6272C7 64.515 8.21344 61.5309 10.3724 59.3336C12.5314 57.1363 15.4584 55.9067 18.507 55.9163H23.1168ZM71.3264 62.2028H60.1009C57.1663 62.2028 54.7872 64.6313 54.7872 67.6271V79.0865C54.7779 80.5281 55.3347 81.9134 56.3332 82.9328C57.3318 83.9521 58.6888 84.5205 60.1009 84.511H71.3264C72.7385 84.5205 74.0955 83.9521 75.0941 82.9328C76.0926 81.9134 76.6494 80.5281 76.6401 79.0865V67.6271C76.6401 66.1885 76.0802 64.8088 75.0837 63.7915C74.0872 62.7742 72.7356 62.2028 71.3264 62.2028ZM71.3264 15C77.6128 15.1524 82.6681 20.3289 82.7981 26.7468V38.1703C82.8357 41.2763 81.663 44.2703 79.5379 46.4935C77.4129 48.7167 74.5097 49.987 71.4671 50.0249H66.8221C65.2485 49.8529 64.0551 48.4972 64.0551 46.8816C64.0551 45.266 65.2485 43.9103 66.8221 43.7384H71.3264C72.7511 43.7289 74.1133 43.1396 75.1108 42.101C76.1084 41.0625 76.6588 39.6606 76.64 38.2062V26.7468C76.6021 23.7672 74.2451 21.3611 71.3264 21.3224H60.1009C57.1663 21.3224 54.7873 23.751 54.7873 26.7468V43.882L54.7506 44.2761C54.5118 45.8225 53.1922 46.9904 51.6203 46.9714C50.802 46.9527 50.0251 46.6003 49.4631 45.9928C48.901 45.3853 48.6007 44.5734 48.6292 43.7384V26.7468C48.6198 23.6347 49.8243 20.6467 51.9767 18.4427C54.1291 16.2387 57.0523 15 60.1009 15H71.3264ZM29.7324 15C36.0795 15.0197 41.22 20.2674 41.2394 26.7468V38.2062C41.2394 41.3184 40.0259 44.3025 37.8669 46.4998C35.7079 48.697 32.781 49.9266 29.7324 49.9172H18.507C12.1735 49.8975 7.03859 44.6716 7 38.2062V26.7468C7.03842 20.2755 12.1678 15.0392 18.507 15H29.7324ZM29.7324 21.3224H18.507C17.0795 21.2935 15.7007 21.8522 14.6812 22.8726C13.6618 23.893 13.0875 25.2893 13.0878 26.7468V38.2062C13.0588 39.6823 13.6204 41.1067 14.643 42.1507C15.6657 43.1947 17.061 43.768 18.507 43.7384H29.7324C31.1572 43.7289 32.5194 43.1396 33.5169 42.101C34.5144 41.0625 35.0648 39.6606 35.046 38.2062V26.7468C35.0268 23.7592 32.659 21.342 29.7324 21.3224Z" fill="#31BC71"/>
</svg>
