<svg width="78" height="93" viewBox="0 0 78 93" fill="none" xmlns="http://www.w3.org/2000/svg">
<path d="M43.4062 78.4663C43.7533 79.9701 42.8193 81.4671 41.3238 81.8123C39.8282 82.1576 38.3325 81.2216 37.9853 79.7178C37.6381 78.214 38.5722 76.717 40.0677 76.3718C41.5632 76.0265 43.059 76.9625 43.4062 78.4663Z" fill="#31BC71" stroke="#31BC71"/>
<path d="M63.2793 17.512L63.2432 68.565L63.2383 76.3591C63.2363 77.4129 62.8848 78.4363 62.2388 79.2688C61.5929 80.1014 60.689 80.6962 59.6688 80.9599L23.7651 90.2889C21.2188 90.9503 18.6179 89.4294 17.9581 86.8903C17.9464 86.8477 17.9365 86.8047 17.9269 86.7635L2.06856 18.0733C1.47843 15.5171 3.07859 12.9649 5.64278 12.373L18.5766 9.38694M30.996 6.65371C33.2609 6.1308 36.9719 5.22877 42.131 3.94899C44.6952 3.357 47.2531 4.94923 47.8432 7.50536" stroke="#31BC71" stroke-width="3.165"/>
<path d="M17.3722 70.2702H63.9109V81.7809C63.9109 82.3522 63.7983 82.918 63.5797 83.4459C63.361 83.9738 63.0405 84.4534 62.6364 84.8574C62.2323 85.2613 61.7526 85.5818 61.2247 85.8004C60.6968 86.0189 60.131 86.1314 59.5596 86.1313H59.5596H21.7226C21.1513 86.1313 20.5856 86.0187 20.0578 85.8001C19.53 85.5815 19.0504 85.261 18.6464 84.8571C18.2424 84.4531 17.922 83.9735 17.7033 83.4457C17.4847 82.9179 17.3722 82.3522 17.3722 81.7809V70.2702Z" fill="#31BC71" stroke="#31BC71"/>
<path d="M43.404 77.7321C43.404 79.2693 42.1648 80.5111 40.6415 80.5111C39.1183 80.5111 37.8791 79.2693 37.8791 77.7321C37.8791 76.1949 39.1183 74.9531 40.6415 74.9531C42.1648 74.9531 43.404 76.1949 43.404 77.7321Z" fill="#31BC71" stroke="white"/>
<path d="M34.1167 14.5039H42.5054M46.234 14.5039H47.1664" stroke="#31BC71" stroke-width="3.165" stroke-linecap="round" stroke-linejoin="round"/>
<path d="M58.1058 6.59253H23.1782C20.4994 6.59253 18.3278 8.76414 18.3278 11.4429V80.3262C18.3278 83.0051 20.4994 85.1767 23.1782 85.1767H58.1058C60.7846 85.1767 62.9562 83.0051 62.9562 80.3262V11.4429C62.9562 8.76414 60.7846 6.59253 58.1058 6.59253Z" stroke="#31BC71" stroke-width="3.165"/>
</svg>
