<svg width="83" height="83" viewBox="0 0 83 83" fill="none" xmlns="http://www.w3.org/2000/svg">
<g clip-path="url(#clip0_66_67)">
<path d="M41.5 0C18.5848 0 0 18.5848 0 41.5C0 64.4152 18.5848 83 41.5 83C64.4152 83 83 64.4152 83 41.5C83 18.5848 64.4152 0 41.5 0ZM44.838 75.6022C44.6576 75.6022 44.4772 75.6022 44.2065 75.6924V56.1152C48.8978 56.025 53.138 55.9348 57.0174 55.6641C53.5891 66.2196 47.1837 73.2565 44.838 75.6022ZM38.162 75.6022C35.7261 73.1663 29.4109 66.1293 25.9826 55.6641C29.7717 55.9348 34.1022 56.1152 38.7935 56.1152V75.6924C38.613 75.6924 38.4326 75.6022 38.162 75.6022ZM7.21739 41.5C7.21739 39.2446 7.48804 36.9891 7.84891 34.8239C9.8337 34.463 13.6228 33.9217 18.9457 33.3804C18.4946 35.9967 18.2239 38.7033 18.2239 41.5902C18.2239 44.4772 18.4946 47.1837 18.8554 49.7098C13.6228 49.1685 9.74348 48.6272 7.7587 48.2663C7.48804 46.0109 7.21739 43.7554 7.21739 41.5ZM23.7272 41.5C23.7272 38.4326 24.088 35.5457 24.6293 32.8391C28.7793 32.5685 33.4707 32.2978 38.7935 32.2978V50.7022C33.5609 50.612 28.7793 50.4315 24.5391 50.0707C24.088 47.4543 23.7272 44.5674 23.7272 41.5ZM44.7478 7.39783C47.1837 9.8337 53.4087 17.0511 56.9272 27.3359C53.138 27.0652 48.8978 26.8848 44.2065 26.8848V7.30761C44.387 7.30761 44.5674 7.39783 44.7478 7.39783ZM38.7935 7.30761V26.8848C34.1022 26.975 29.862 27.0652 26.0728 27.3359C29.5011 17.0511 35.8163 9.8337 38.162 7.39783C38.4326 7.39783 38.613 7.30761 38.7935 7.30761ZM44.2065 50.7022V32.2978C49.4391 32.388 54.2206 32.5685 58.3707 32.8391C58.912 35.5457 59.2728 38.4326 59.2728 41.5C59.2728 44.5674 59.0022 47.4543 58.4609 50.1609C54.3109 50.4315 49.5294 50.612 44.2065 50.7022ZM63.9641 33.3804C69.287 33.9217 73.0761 34.463 75.0609 34.8239C75.512 36.9891 75.7826 39.2446 75.7826 41.5C75.7826 43.7554 75.512 46.0109 75.1511 48.1761C73.1663 48.537 69.3772 49.0783 64.0544 49.6196C64.5054 47.0033 64.6859 44.2967 64.6859 41.4098C64.6859 38.7033 64.4152 35.9065 63.9641 33.3804ZM73.437 29.05C70.9109 28.6891 67.3022 28.238 62.7011 27.787C60.5359 20.0283 56.7467 13.8033 53.5891 9.38261C62.7011 12.8109 69.9185 20.0283 73.437 29.05ZM29.4109 9.38261C26.163 13.713 22.4641 19.938 20.2989 27.6967C15.788 28.0576 12.1793 28.5989 9.56304 28.9598C13.0815 20.0283 20.3891 12.8109 29.4109 9.38261ZM9.56304 53.95C12.0891 54.3109 15.6978 54.762 20.2087 55.213C22.3739 62.9717 25.9826 69.1967 29.2304 73.5272C20.2087 70.0087 13.0815 62.8815 9.56304 53.95ZM53.7696 73.5272C57.0174 69.1967 60.6261 63.062 62.7913 55.3033C67.3022 54.9424 70.9109 54.4011 73.437 54.0402C69.9185 62.8815 62.7913 70.0087 53.7696 73.5272Z" fill="#31BC71"/>
</g>
<defs>
<clipPath id="clip0_66_67">
<rect width="83" height="83" fill="white"/>
</clipPath>
</defs>
</svg>
